<svg xmlns="http://www.w3.org/2000/svg" viewBox="0 0 512 512">
  <defs>
    <linearGradient id="bg" x1="0%" y1="0%" x2="100%" y2="100%">
      <stop offset="0%" stop-color="#0f766e" />
      <stop offset="100%" stop-color="#0b1726" />
    </linearGradient>
    <linearGradient id="accent" x1="0%" y1="0%" x2="100%" y2="100%">
      <stop offset="0%" stop-color="#f8fafc" />
      <stop offset="100%" stop-color="#7dd3fc" />
    </linearGradient>
  </defs>
  <rect width="512" height="512" rx="132" fill="url(#bg)" />
  <path d="M124 170h264c15.46 0 28 12.54 28 28v116c0 15.46-12.54 28-28 28H204l-60 52v-52h-20c-15.46 0-28-12.54-28-28V198c0-15.46 12.54-28 28-28Z" fill="#06202d" stroke="#5eead4" stroke-width="12" />
  <path d="M176 228h160M176 274h112" stroke="url(#accent)" stroke-linecap="round" stroke-width="24" />
  <circle cx="344" cy="274" r="18" fill="#f59e0b" />
  <path d="M214 118l42 42 42-42" fill="none" stroke="#fef3c7" stroke-linecap="round" stroke-linejoin="round" stroke-width="18" />
</svg>
